<?xml version="1.0" encoding="utf-8"?>
<!-- Generator: Adobe Illustrator 23.0.4, SVG Export Plug-In . SVG Version: 6.00 Build 0)  -->
<svg version="1.1" id="Layer_1" xmlns="http://www.w3.org/2000/svg" xmlns:xlink="http://www.w3.org/1999/xlink" x="0px" y="0px"
	 viewBox="0 0 266.3 512" style="enable-background:new 0 0 266.3 512;" xml:space="preserve">
<style type="text/css">
	.st0{fill:#3A3A3A;}
	.st1{fill:#3A3A3A;stroke:#FFFFFF;stroke-width:5;stroke-miterlimit:10;}
</style>
<g>
	<g>
		<path class="st0" d="M11.6,222.3C8,232.6,6.2,243.6,6.2,256v193.3c0,15.7,12.8,28.5,28.5,28.5h83.8c15.5,0,28.1-12.6,28.1-28.1
			V256c0-29.1-10.3-45.7-17-56.6l-0.3-0.5c-6.9-11.1-21.3-34.3-21.3-56.5V54.2c0-11-9-20-20-20h-23c-11,0-20,9-20,20v88.2
			c0,6.9-1.4,14.6-4.3,22.8c-0.8,2.3-1.8,4.5-3,6.6C33.2,179.4,21,201.1,11.6,222.3z M53.3,173.1c4-7.9,5.1-16.2,5.8-23.7l11.6,11.7
			c0.6,0.7,1.4,1.2,2.2,1.6c2.9,1.3,6.1,0.6,8.2-1.5l12.5-12.6c2.2,24.1,16.2,46.7,23.2,58l0.3,0.5C123.8,217.8,132,231,132,256v16
			H20.8v-16c0-10.7,1.5-20.1,4.6-28.8 M93.3,128.1l-17.4,17.6l-16.5-16.6v-19.7l11.3,11.4c1.4,1.4,3.2,2.2,5.2,2.2
			c1.9,0,3.8-0.8,5.2-2.2l12.2-12.4L93.3,128.1L93.3,128.1z M93.3,87.6l-17.4,17.6L59.5,88.6V54.2c0-3,2.4-5.4,5.4-5.4h23
			c3,0,5.4,2.4,5.4,5.4L93.3,87.6L93.3,87.6z M20.8,286.6H132v100.3H20.8V286.6z M132,449.7c0,7.5-6.1,13.5-13.5,13.5H34.7
			c-7.7,0-13.9-6.2-13.9-13.9v-47.8H132V449.7z"/>
	</g>
</g>
<g>
	<g>
		<g>
			<path class="st0" d="M196.7,34.5c-3.7,0-6.7,3-6.7,6.7l0,98.8c0,3.7,3,6.7,6.7,6.7c1.9,0,3.5-0.8,4.8-2c1.2-1.2,2-2.9,2-4.8
				l0-98.8C203.4,37.6,200.4,34.5,196.7,34.5z"/>
		</g>
	</g>
	<g>
		<g>
			<path class="st0" d="M223.3,34.3c-3.7,0-6.7,3-6.7,6.7v98.8c0,3.7,3,6.7,6.7,6.7c1.9,0,3.5-0.8,4.8-2c1.2-1.2,2-2.9,2-4.8l0-98.8
				C230.1,37.3,227,34.3,223.3,34.3z"/>
		</g>
	</g>
	<g>
		<g>
			<path class="st0" d="M234.1,241.6l-2-32.9c17-8.1,28-25.3,28-44.4V41.7c0-3.7-3-6.7-6.7-6.7c-3.7,0-6.7,3-6.7,6.7l0,122.6
				c0,15.1-9.6,28.6-23.8,33.7c-2.8,1-4.7,3.8-4.5,6.8l2.6,44.3c0,0,0,0,0,0.1c0,0,0,0,0,0.1l11.4,191.5c0,0,0,0.1,0,0.1
				c0.1,0.6,0.1,1.2,0.1,1.8c0,11.9-9.7,21.6-21.6,21.6c-5.8,0-11.2-2.2-15.2-6.3c-4.1-4.1-6.3-9.5-6.3-15.3c0-0.6,0-1.1,0.1-1.8
				c0,0,0-0.1,0-0.1l6.3-106.3c0.2-3.7-2.6-6.9-6.3-7.1c-3.7-0.2-6.9,2.6-7.1,6.3L176,439.8c-0.1,1-0.1,1.9-0.1,2.8
				c0,9.4,3.6,18.2,10.3,24.8c6.6,6.6,15.4,10.3,24.8,10.3c9.7,0,18.4-3.9,24.8-10.3c6.3-6.3,10.3-15.1,10.3-24.8
				c0-0.9,0-1.8-0.1-2.8l-8.7-145.9 M236.4,280.3l-1.5-25.3"/>
		</g>
	</g>
	<g>
		<g>
			<path class="st0" d="M195.8,334.4l7.7-129.7c0.2-3-1.6-5.8-4.5-6.8c-14.2-5-23.8-18.6-23.8-33.7l0-122.6c0-3.7-3-6.7-6.7-6.7
				c-3.7,0-6.7,3-6.7,6.7l0,122.6c0,19.1,11.1,36.3,28,44.4l-2.1,35.6l-5.3,89.3"/>
		</g>
	</g>
</g>
<path class="st0" d="M77.2,363.8c-6.3,0.3-12.5-0.2-17.3-2.2c-1-0.4-2.2-0.1-3,0.7c-3.2,3.5-8.3,7.5-12,8.1c3-4.5,7.2-8.3,5.7-13.7
	c-0.3-0.6-0.6-1.2-0.7-1.4c-5.7-8.4-9-13.2-8.4-21.4c1.3-19.3,18.4-28.8,35.8-28.8c17.6,0,33.9,8.7,34.1,28.8
	C111.6,351.7,95.3,363,77.2,363.8z M122.6,331.3c-1.2-11.6-5.8-19.6-14.5-26.7c0,0-3.1-2.7-8.2-5.4c0,0-8-5.3-25.3-5.3
	c-23,1.2-44.5,17.7-44.5,40.1c0,9.3,2.7,18.4,9.4,25.6c0.5,5.7-0.7,8.9-4.3,13.3c-0.8,0.8-1,1.9-0.6,2.9c0.4,1,3.4,1.6,4.5,1.7
	c6.9,0.3,14,0,19.4-5.3c5.3,1.8,12.3,1.9,18.6,1.9c24.1,0,43.9-16.6,45.4-37.5C122.6,336.6,122.8,334,122.6,331.3z"/>
<path class="st1" d="M397.5,166.3"/>
</svg>
