<?xml version="1.0" encoding="utf-8"?>
<!-- Generator: Adobe Illustrator 23.0.4, SVG Export Plug-In . SVG Version: 6.00 Build 0)  -->
<svg version="1.1" id="Layer_1" xmlns="http://www.w3.org/2000/svg" xmlns:xlink="http://www.w3.org/1999/xlink" x="0px" y="0px"
	 viewBox="0 0 425.2 425.2" style="enable-background:new 0 0 425.2 425.2;" xml:space="preserve">
<style type="text/css">
	.st0{fill:#F2F2F2;}
	.st1{fill:#C3C3C3;}
</style>
<circle class="st0" cx="212.6" cy="212.6" r="212.6"/>
<path class="st1" d="M245.8,218.2c13.5-10.4,22.2-26.6,22.2-44.9c0.1-31.2-25.3-56.5-56.5-56.5S155,142.1,155,173.3
	c0,18.3,8.7,34.6,22.2,44.9c-26,1.5-46.6,23.2-46.6,49.5v34.9c0,3.2,2.6,5.8,5.8,5.8h150.1c3.2,0,5.8-2.6,5.8-5.8v-34.9
	C292.4,241.4,271.8,219.7,245.8,218.2L245.8,218.2z M166.7,173.3c0-24.7,20.1-44.8,44.8-44.8s44.9,20.1,44.9,44.8
	s-20.1,44.8-44.8,44.8S166.7,198,166.7,173.3L166.7,173.3z M280.7,296.7H142.3v-29c0-20.9,17-37.8,37.8-37.8h62.7
	c20.9,0,37.8,17,37.8,37.8L280.7,296.7L280.7,296.7z"/>
</svg>
