<?xml version="1.0" encoding="utf-8"?>
<!-- Generator: Adobe Illustrator 23.0.4, SVG Export Plug-In . SVG Version: 6.00 Build 0)  -->
<svg version="1.1" id="Capa_1" xmlns="http://www.w3.org/2000/svg" xmlns:xlink="http://www.w3.org/1999/xlink" x="0px" y="0px"
	 viewBox="0 0 446.4 446.4" style="enable-background:new 0 0 446.4 446.4;" xml:space="preserve">
<style type="text/css">
	.st0{fill:#C3C3C3;}
	.st1{fill:none;stroke:#C3C3C3;stroke-width:20;stroke-miterlimit:10;}
</style>
<g>
	<g>
		<path class="st0" d="M322.1,195.1c-1.1-3.3-3.7-5.7-7-6.6L261,174.6L231,127.4c-1.8-2.9-5-4.6-8.4-4.6c-3.4,0-6.6,1.8-8.4,4.6
			l-29.9,47.2l-54.1,13.9c-3.3,0.9-6,3.3-7,6.6c-1.1,3.3-0.4,6.8,1.8,9.5l35.6,43l-3.5,55.8c-0.2,3.4,1.3,6.7,4.1,8.7
			c2.8,2,6.4,2.5,9.6,1.2l51.9-20.6l51.9,20.6c1.2,0.5,2.4,0.7,3.7,0.7c2.1,0,4.1-0.6,5.9-1.9c2.8-2,4.3-5.3,4.1-8.7l-3.5-55.8
			l35.6-43C322.5,201.9,323.2,198.3,322.1,195.1z M266.7,237.9c-1.6,2-2.4,4.5-2.3,7l2.8,44l-41-16.2c-2.4-0.9-5-0.9-7.4,0l-41,16.2
			l2.8-44c0.2-2.5-0.7-5-2.3-7l-28.1-33.9L193,193c2.5-0.6,4.6-2.2,6-4.3l23.6-37.2l23.6,37.2c1.4,2.1,3.5,3.7,6,4.3l42.7,10.9
			L266.7,237.9z"/>
	</g>
</g>
<circle class="st1" cx="223.2" cy="223.2" r="213.2"/>
</svg>
