<?xml version="1.0" encoding="utf-8"?>
<!-- Generator: Adobe Illustrator 23.0.4, SVG Export Plug-In . SVG Version: 6.00 Build 0)  -->
<svg version="1.1" id="Capa_1" xmlns="http://www.w3.org/2000/svg" xmlns:xlink="http://www.w3.org/1999/xlink" x="0px" y="0px"
	 viewBox="0 0 512 512" style="enable-background:new 0 0 512 512;" xml:space="preserve">
<g>
	<g>
		<path d="M301.3,256L502.6,54.7c12.5-12.5,12.5-32.8,0-45.3c-12.5-12.5-32.8-12.5-45.3,0L256,210.7L54.7,9.4
			C42.2-3.1,21.9-3.1,9.4,9.4c-12.5,12.5-12.5,32.8,0,45.3L210.7,256L9.4,457.3c-12.5,12.5-12.5,32.8,0,45.3
			c6.2,6.2,14.4,9.4,22.6,9.4s16.4-3.1,22.6-9.4L256,301.3l201.3,201.3c6.2,6.2,14.5,9.4,22.6,9.4c8.2,0,16.4-3.1,22.6-9.4
			c12.5-12.5,12.5-32.8,0-45.3L301.3,256z"/>
	</g>
</g>
</svg>
