<?xml version="1.0" encoding="utf-8"?>
<!-- Generator: Adobe Illustrator 23.0.4, SVG Export Plug-In . SVG Version: 6.00 Build 0)  -->
<svg version="1.1" id="Capa_1" xmlns="http://www.w3.org/2000/svg" xmlns:xlink="http://www.w3.org/1999/xlink" x="0px" y="0px"
	 viewBox="0 0 512 512" style="enable-background:new 0 0 512 512;" xml:space="preserve">
<style type="text/css">
	.st0{fill:#C3C3C3;}
</style>
<g>
	<g>
		<path class="st0" d="M301.28,256.01L502.62,54.67c12.51-12.5,12.51-32.78,0-45.28c-12.51-12.51-32.77-12.51-45.28,0L256.01,210.73
			L54.66,9.39C42.15-3.12,21.89-3.12,9.38,9.39c-12.51,12.5-12.51,32.78,0,45.28l201.35,201.34L9.38,457.34
			c-12.51,12.5-12.51,32.78,0,45.28c6.25,6.24,14.45,9.37,22.64,9.37s16.38-3.13,22.64-9.38l201.35-201.34l201.34,201.34
			c6.25,6.25,14.45,9.38,22.64,9.38c8.19,0,16.38-3.13,22.64-9.38c12.51-12.5,12.51-32.78,0-45.28L301.28,256.01z"/>
	</g>
</g>
</svg>
