<?xml version="1.0" encoding="utf-8"?>
<!-- Generator: Adobe Illustrator 23.0.4, SVG Export Plug-In . SVG Version: 6.00 Build 0)  -->
<svg version="1.1" id="Слой_1" xmlns="http://www.w3.org/2000/svg" xmlns:xlink="http://www.w3.org/1999/xlink" x="0px" y="0px"
	 viewBox="0 0 460 474.3" style="enable-background:new 0 0 460 474.3;" xml:space="preserve">
<style type="text/css">
	.st0{fill:#C3C3C3;}
</style>
<path class="st0" d="M210.6,19.1L113.7,0.2c-4.2-0.8-8.5,1.1-10.6,4.8c-1.4,2.5-35.7,62.1-50.6,138.4c-3.4,17.6-4.9,35.1-4.6,51.7
	c0.2,13,1.7,26.1,4.7,38.8c0.8,3.6,1.8,7.2,2.9,10.7C63.8,271,78,289,96,296.5L75.1,409.3L30,400.5c-11.4-2.2-23.2,4.1-27.5,14.9
	c-0.7,1.8-1.2,3.7-1.6,5.7c-0.4,1.8-0.8,3.6-0.9,5.5c-0.4,5.9,1.4,11.8,4.9,16.5c3.6,4.8,9,8.1,14.9,9.3l110,21.5
	c9.5,1.9,19.6-2.4,25.1-10.4c1.4-2.1,2.5-4.4,3.2-6.9c0.8-3,1.5-6.2,1.7-9.3c0.3-5.7-1.5-11.4-5-16c-3.6-4.8-9-8.1-14.9-9.3
	l-45.2-8.8l20.9-112.9c18.5-0.2,37.3-10.4,54.1-29.5c1.4-1.6,2.7-3.2,4-4.8c12.4-15.4,22.7-34.8,30.3-56.6c3.9-11.3,7-22.8,9.3-34.5
	c14.9-76.3,5.6-144.4,5.2-147.3C218,23.3,214.8,19.9,210.6,19.1z M139,443.6c0.8,1.1,0.8,2.5,0.6,3.8c-0.2,1.2-0.4,2.6-0.8,3.7
	c-0.8,2.1-2.8,3.5-5.1,3l-110-21.5c-1.3-0.3-2.5-1.1-3.1-2.3c-0.9-1.6-0.4-3.3-0.1-5c0.3-1.5,0.5-3,1.7-4.1c1.1-1,2.5-1.4,3.9-1.1
	l110,21.5C137.8,442,138.7,443,139,443.6z M117.1,21.3l82.5,16.1c1.9,19.1,5.7,74.3-5.8,133.6c-0.9,4.7-2,9.4-3.2,13.9H68
	c0.3-12.2,1.7-24.9,4.2-37.6C83.8,88.2,108.1,38.3,117.1,21.3z M175.8,225.3c-5.1,10.4-11.2,20.4-18.6,29.4
	c-10.8,13.1-22.2,21.4-33.1,24.3c-5.5,1.5-11.3,1.6-16.8,0.1c-9.3-2.6-17.4-9.8-23.9-20.5C76,246.2,72,231.7,69.9,217.5
	c-0.6-4.1-1.1-8.3-1.4-12.5h115.9C181.9,211.9,179.1,218.7,175.8,225.3z"/>
<path class="st0" d="M176.1,136.6c0.3,0,0.6,0,0.9,0c5.1,0,9.5-3.9,10-9.1c1.9-20.6,2.4-42,1.6-63.4c-0.2-5.5-4.8-9.9-10.4-9.6
	c-5.5,0.2-9.9,4.9-9.6,10.4c0.8,20.6,0.3,41-1.5,60.8C166.6,131.2,170.6,136.1,176.1,136.6z"/>
<path class="st0" d="M459.5,423.5c-0.7-3.7-1.5-7.4-3.3-10.7c-1.5-2.9-3.7-5.4-6.2-7.4c-5.6-4.5-13-6.3-20.1-4.9l-45.1,8.8
	l-22-112.9c38.7-16.1,57.6-80.2,43.4-153C391.4,67.1,357.1,7.5,355.7,5c-2.1-3.7-6.4-5.6-10.6-4.8l-96.9,18.9
	c-4.2,0.8-7.4,4.2-8,8.5c-0.4,2.9-9.7,71,5.2,147.3c14.2,72.8,55.9,125.1,97.8,125.5l22,112.9L320,422c-9.4,1.8-17.1,9.4-19.3,18.7
	c-1.3,5.5-0.4,11.4,1.3,16.8c1.7,5.2,5.2,9.8,9.7,12.8c5.4,3.6,12.1,4.9,18.4,3.7l110-21.5C453.3,449.8,462.1,436.7,459.5,423.5z
	 M259.2,37.4l82.5-16.1c8.9,17,33.3,66.9,44.8,126c0.5,2.6,1,5.2,1.4,7.8H262.3C254.2,102.2,257.5,54.8,259.2,37.4z M439.1,430.8
	c-0.4,0.6-1.3,1.6-2.9,1.9l-110,21.5c-1.4,0.3-2.9-0.2-3.9-1.1c-1.2-1.1-1.4-2.6-1.7-4.1c-0.3-1.5-0.7-3.2-0.1-4.7
	c0.6-1.3,1.8-2.3,3.3-2.6l110-21.5c2.3-0.4,4.3,1,5.1,3C439.8,425.4,440.5,428.8,439.1,430.8z M341.6,280.2
	c-8.7-0.5-16.8-4.5-23.7-9.6s-12.8-11.4-18.1-18.1c-3.2-4.1-6.1-8.4-8.8-12.8c-5.2-8.4-9.9-17.8-14-28c-4.8-11.8-8.4-24.1-11.1-36.6
	h124.3c1.3,18.3,0.5,37-3.8,54.8c-1.2,5.1-2.7,10.1-4.6,15c-7,18.4-17.6,30.4-30,34C348.6,280,345.1,280.4,341.6,280.2z"/>
<path class="st0" d="M334.7,87.3c3.8,10.5,7.3,21.1,10.3,31.8c1.2,4.2,1.9,8.7,5.9,11.2c3.6,2.2,8.3,1.8,11.5-0.8
	c3-2.5,4.3-6.6,3.3-10.4c-1.3-5.2-2.9-10.4-4.5-15.5c-1.6-5.3-3.4-10.6-5.2-15.9c-0.9-2.6-1.7-5.3-2.8-7.8c-0.7-1.7-2-3.2-3.5-4.3
	c-3.5-2.4-8.4-2.3-11.8,0.3C334.6,78.5,333.2,83.2,334.7,87.3z"/>
<path class="st0" d="M181.5,166.4c0,5.6-4.5,10.1-10.1,10.1c-5.6,0-10.1-4.5-10.1-10.1c0-5.6,4.5-10.1,10.1-10.1
	C177,156.3,181.5,160.8,181.5,166.4z"/>
<path class="st0" d="M339.1,46.9c0,5.6-4.5,10.1-10.1,10.1s-10.1-4.5-10.1-10.1c0-5.6,4.5-10.1,10.1-10.1S339.1,41.3,339.1,46.9z"/>
</svg>
