<?xml version="1.0" encoding="utf-8"?>
<!-- Generator: Adobe Illustrator 23.0.4, SVG Export Plug-In . SVG Version: 6.00 Build 0)  -->
<svg version="1.1" id="Capa_1" xmlns="http://www.w3.org/2000/svg" xmlns:xlink="http://www.w3.org/1999/xlink" x="0px" y="0px"
	 viewBox="0 0 512 332.8" style="enable-background:new 0 0 512 332.8;" xml:space="preserve">
<style type="text/css">
	.st0{fill:#C3C3C3;}
</style>
<g>
	<g>
		<path class="st0" d="M503.5,264.5H8.5c-4.7,0-8.5,3.8-8.5,8.5c0,32.9,26.8,59.7,59.7,59.7h392.5c32.9,0,59.7-26.8,59.7-59.7
			C512,268.3,508.2,264.5,503.5,264.5z M452.3,315.7H59.7c-20.6,0-37.8-14.7-41.8-34.1h476.1C490.1,301,472.9,315.7,452.3,315.7z"/>
	</g>
</g>
<g>
	<g>
		<path class="st0" d="M256,42.7c-122.3,0-221.9,99.5-221.9,221.9v8.5c0,4.7,3.8,8.5,8.5,8.5h426.7c4.7,0,8.5-3.8,8.5-8.5v-8.5
			C477.9,142.2,378.3,42.7,256,42.7z M51.2,264.5c0-112.9,91.9-204.8,204.8-204.8s204.8,91.9,204.8,204.8H51.2z"/>
	</g>
</g>
<g>
	<g>
		<path class="st0" d="M115.6,140c-6,6.7-11.5,13.9-16.4,21.3l14.2,9.4c4.5-6.8,9.5-13.3,15-19.4L115.6,140z"/>
	</g>
</g>
<g>
	<g>
		<path class="st0" d="M256,76.8c-47.9,0-93.6,18.1-128.5,51l11.7,12.4C171,110.3,212.4,93.9,256,93.9L256,76.8z"/>
	</g>
</g>
<g>
	<g>
		<rect x="230.4" class="st0" width="51.2" height="17.1"/>
	</g>
</g>
<g>
	<g>
		<rect x="247.5" y="8.5" class="st0" width="17.1" height="42.7"/>
	</g>
</g>
</svg>
