<?xml version="1.0" encoding="utf-8"?>
<!-- Generator: Adobe Illustrator 23.0.4, SVG Export Plug-In . SVG Version: 6.00 Build 0)  -->
<svg version="1.1" id="Layer_1" xmlns="http://www.w3.org/2000/svg" xmlns:xlink="http://www.w3.org/1999/xlink" x="0px" y="0px"
	 viewBox="0 0 276.7 327.6" style="enable-background:new 0 0 276.7 327.6;" xml:space="preserve">
<style type="text/css">
	.st0{fill:#C3C3C3;}
</style>
<path class="st0" d="M196.9,173.4c23.1-17.7,38-45.5,38-76.8C235,43.3,191.6,0,138.3,0S41.7,43.3,41.7,96.6
	c0,31.3,14.9,59.1,38,76.8C35.3,176,0,213,0,258v59.6c0,5.5,4.5,10,10,10h256.7c5.5,0,10-4.5,10-10V258
	C276.7,213,241.4,176,196.9,173.4L196.9,173.4z M61.7,96.6c0-42.3,34.4-76.6,76.6-76.6S215,54.4,215,96.6s-34.4,76.6-76.6,76.6
	S61.7,138.9,61.7,96.6L61.7,96.6z M256.7,307.6H20V258c0-35.7,29-64.7,64.7-64.7h107.2c35.7,0,64.7,29,64.7,64.7L256.7,307.6
	L256.7,307.6z"/>
</svg>
