<?xml version="1.0" encoding="utf-8"?>
<!-- Generator: Adobe Illustrator 23.0.4, SVG Export Plug-In . SVG Version: 6.00 Build 0)  -->
<svg version="1.1" id="Capa_1" xmlns="http://www.w3.org/2000/svg" xmlns:xlink="http://www.w3.org/1999/xlink" x="0px" y="0px"
	 viewBox="0 0 393.3 581.7" style="enable-background:new 0 0 393.3 581.7;" xml:space="preserve">
<style type="text/css">
	.st0{fill:#C3C3C3;}
</style>
<g>
	<g>
		<path class="st0" d="M220.9,89.8c-1.4-7.1-3.5-14.1-6.3-20.8c-2.8-6.8-6.3-13.2-10.3-19.3c-8.2-12.2-18.7-22.8-30.9-31
			c-12.1-8.1-25.7-13.8-40-16.6c-14.4-2.8-29.3-2.8-43.7,0c-14.3,2.9-27.9,8.5-40,16.6C37.5,27,27,37.5,18.8,49.7
			C10.6,61.8,5,75.4,2.1,89.7c-2.8,14.4-2.8,29.3,0,43.7c2.9,14.3,8.5,27.9,16.6,40c10.8,16.2,25.6,29.2,43,38
			c10.5,5.4,21.9,9.1,33.6,10.9c2.3,0.2,4.1,2.2,4,4.6v31.6c0,2.4-2,4.4-4.4,4.4H48.4c-3.1,0-6.2,1.3-8.4,3.5
			c-4.5,4.5-4.6,11.8-0.3,16.5l0.2,0.2c1.1,1.1,2.5,2,4,2.6c1.4,0.6,3,0.9,4.5,0.9h46.7c1.2,0,2.3,0.5,3.1,1.3
			c0.8,0.8,1.2,1.9,1.2,3v46.8c0,1.6,0.3,3.1,0.9,4.6c0.6,1.5,1.4,2.9,2.6,4c1.1,1.1,2.5,2,4,2.6c2.9,1.2,6.2,1.2,9.1,0
			c1.5-0.6,2.9-1.4,4-2.6c1.1-1.1,2-2.5,2.6-4c0.6-1.4,0.9-3,0.9-4.6v-46.8c0-1.2,0.5-2.3,1.3-3.1c0.8-0.8,2-1.3,3.1-1.3h46.7
			c1.6,0,3.1-0.3,4.6-0.9c1.5-0.6,2.9-1.4,4-2.6c1.1-1.1,2-2.5,2.6-4c1.2-2.9,1.2-6.2,0-9.1c-0.3-0.8-0.7-1.5-1.2-2.2l-1.6-1.6
			c-2.2-2.2-5.3-3.5-8.4-3.5h-46.8c-1.2,0-2.3-0.5-3.1-1.3c-0.8-0.8-1.3-2-1.3-3.1v-29.4v-2c0-1.1,0.4-2.1,1.1-2.9
			c0.7-0.8,1.6-1.3,2.7-1.4c11.9-1.7,23.4-5.3,34.1-10.6c24.1-12.1,43.1-32.5,53.4-57.4c2.8-6.7,4.9-13.7,6.3-20.9
			C223.8,119.1,223.8,104.3,220.9,89.8z M197.6,128.8v0.2c-9.8,47.8-56.5,78.6-104.3,68.8S14.7,141.3,24.5,93.5S81,14.9,128.8,24.7
			c41.3,8.5,70.8,44.9,70.6,87C199.4,117.5,198.8,123.2,197.6,128.8z"/>
	</g>
</g>
<g>
	<g>
		<path class="st0" d="M391.3,314.6l-55.1-72.8l-0.3-0.4c-1.9-3-5.1-5-8.6-5.4c-1.2-0.1-2.4,0-3.5,0.2h-0.5l-90.3,11.2
			c-6.2,0.7-10.7,6.3-10,12.5c0.7,6.2,6.3,10.7,12.5,10c0.1,0,0.1,0,0.2,0l62.6-7.7l9.8-1.2l-4,9l-33.9,80l-1.9,4.6l-4.6-1.1
			c-61.9-16.4-125.4,20.6-141.8,82.5s20.6,125.4,82.5,141.8s125.4-20.6,141.8-82.5c13.2-49.9-8.2-102.5-52.5-129.1l-4.2-2.5l1.9-4.6
			l33.9-80l4-9l5.9,8l38.1,50.2c4,4.8,11.2,5.5,16,1.5C393.7,326,394.6,319.4,391.3,314.6z M300.3,400.3l-0.1,0
			c36.4,36.8,36.1,96.1-0.7,132.5S203.4,568.8,167,532s-36.1-96.1,0.7-132.5c27-26.7,67.4-34.5,102.4-19.7
			C281.4,384.6,291.6,391.5,300.3,400.3z"/>
	</g>
</g>
</svg>
