<?xml version="1.0" encoding="utf-8"?>
<!-- Generator: Adobe Illustrator 23.0.4, SVG Export Plug-In . SVG Version: 6.00 Build 0)  -->
<svg version="1.1" id="Capa_1" xmlns="http://www.w3.org/2000/svg" xmlns:xlink="http://www.w3.org/1999/xlink" x="0px" y="0px"
	 viewBox="0 0 375.3 512" style="enable-background:new 0 0 375.3 512;" xml:space="preserve">
<style type="text/css">
	.st0{fill:#C3C3C3;}
</style>
<path class="st0" d="M323.6,492.5c5.7-6.6,8.5-19,8-26.9c0-0.7,0.1-1.3,0-2l0-0.3l-8.1-100.6c-1.7-22-3.5-39-5-54
	c-2.7-26-5-48.5-6.2-86c-0.3-10.4,3.2-18,11-23.3c38.9-26.7,57.8-69.7,50.6-115.2C367.3,43.5,339.5,0,281.1,0c-0.1,0-0.1,0-0.2,0
	c-58.5,0-86.3,43.5-92.8,84.2c-0.7,4.6-1.2,9.3-1.4,13.9c0,0-0.9,21.3,4.2,36.5c7.4,26.1,23.9,48.5,47.7,64.8
	c7.7,5.3,11.3,12.9,11,23.3c-1.2,37.5-3.5,60-6.2,86c-1.5,15-3.3,32-5,54l-6.7,84.3l0,0.5c-1.4,16.5-3.3,39.1,14.9,54.2
	c8.9,7.4,23.9,10.5,34.3,10.2c0.5,0,0.9,0,1.4,0c10.3,0,24.4-3.1,33-10.2c3.7-3.1,6.8-6.7,9.2-10.7c0.2-0.3,0.2-0.7,0.1-1.1
	c-1-3.7-15.5-8-17-5.5c-1.5,2.6-4.1,5.1-6.4,7c-4.5,3.8-14.1,5.6-19.4,5.4c-0.5,0-1.1,0-1.6,0c-5.4,0.1-14.9-1.7-19.4-5.4
	c-12.5-10.4-11-28.5-9.8-43l6.8-84.9c1.7-21.8,3.5-38.8,5-53.7c2.7-26.2,5-48.9,6.3-86.8c0.5-14.9-5.4-26.6-17.5-34.9
	c-20.7-14.2-35.1-33.8-41.6-56.8c-4.6-15.1-3.8-32.8-3.8-32.8c0.2-4.2,0.6-8.4,1.3-12.6c2.7-16.7,15.8-71.1,73.6-71.1h0.1
	c57.8,0,71,54.4,73.6,71.1c6.5,40.6-10.1,78.7-44.2,102.1c-12.1,8.3-18,20.1-17.5,34.9c1.3,37.9,3.6,60.6,6.3,86.8
	c1.5,14.9,3.3,31.9,5,53.7l8.2,101.5l0,0.3c0.1,1.7-1,14.2-5.4,20"/>
<path class="st0" d="M137,0h-2.9c-12.8,0-23.2,8.1-23.2,18v100.1c0,1.5-1.6,2.7-3.5,2.7c-1.9,0-3.5-1.2-3.5-2.7V18
	c0-9.9-10.4-18-23.2-18h-0.6C67.3,0,56.9,8.1,56.9,18v100.1c0,1.5-1.6,2.7-3.5,2.7h-0.6c-1.9,0-3.5-1.2-3.5-2.7V18
	C49.2,8.1,38.8,0,26,0h-2.9C10.4,0,0,8.1,0,18v115.6c0,25.2,13.6,49,37.4,65.5l0.4,0.3c7.7,5.3,11.3,12.9,11,23.3
	c-1.2,37.5-3.5,60-6.2,86c-1.5,15-3.3,32-5,54l-6.7,84.3l0,0.5c-1.4,16.5-3.3,39.1,14.9,54.2c8.9,7.4,23.9,10.5,34.3,10.2
	c0.5,0,0.9,0,1.4,0c10.3,0,24.4-3.1,33-10.2c18.2-15.1,16.3-37.7,14.9-54.2l-6.8-84.8c-1.7-22-3.5-39-5-54
	c-1.4-14.1-2.8-27.5-3.9-42.4c-0.3-4.1-4.8-7.3-10.2-7.1c-5.3,0.2-9.4,3.8-9.1,7.9c1.1,15.1,2.5,28.5,3.9,42.7
	c1.5,14.9,3.3,31.9,5,53.7L110,448l0,0.5c1.2,14.5,2.7,32.6-9.8,43c-4.6,3.9-14.5,5.6-19.8,5.4c-0.3,0-0.6,0-0.9,0
	c-5.3,0.2-15.1-1.6-19.8-5.4c-12.5-10.4-11-28.5-9.8-43l6.8-84.9c1.7-21.8,3.5-38.8,5-53.7c2.7-26.2,5-48.9,6.3-86.8
	c0.5-14.9-5.4-26.6-17.5-35l-0.4-0.3c-19.6-13.6-30.9-33.3-30.9-54.2V18c0-1.7,1.7-3,3.9-3H26c2.1,0,3.9,1.4,3.9,3v100.1
	c0,9.8,10.2,17.7,22.8,17.7h0.6c12.6,0,22.8-8,22.8-17.7V18c0-1.7,1.7-3,3.9-3h0.6c2.1,0,3.9,1.4,3.9,3v100.1
	c0,9.8,10.2,17.7,22.8,17.7s22.8-8,22.8-17.7V18c0-1.7,1.7-3,3.9-3h2.9c2.1,0,3.9,1.4,3.9,3v115.6c0,20.9-11.2,40.7-30.9,54.3
	l-0.4,0.3c-12.1,8.3-18,20.1-17.5,34.9c0.1,3.1,2.1,39.8,2.2,42.7c0.2,4.1,4.6,7.4,9.9,7.3c5.3-0.1,9.5-3.6,9.3-7.7
	c-0.1-2.8-2.1-39.6-2.2-42.6c-0.3-10.4,3.2-18,11-23.3l0.5-0.3c23.7-16.4,37.3-40.3,37.3-65.4V18C160.2,8.1,149.8,0,137,0L137,0z"/>
</svg>
