<?xml version="1.0" encoding="utf-8"?>
<!-- Generator: Adobe Illustrator 23.0.4, SVG Export Plug-In . SVG Version: 6.00 Build 0)  -->
<svg version="1.1" id="Capa_1" xmlns="http://www.w3.org/2000/svg" xmlns:xlink="http://www.w3.org/1999/xlink" x="0px" y="0px"
	 viewBox="0 0 512 512" style="enable-background:new 0 0 512 512;" xml:space="preserve">
<style type="text/css">
	.st0{fill:#C3C3C3;}
</style>
<g>
	<g>
		<path class="st0" d="M256.9,43.4h191.4c11.7,0,21.3,9.5,21.3,21.3v382.7c0,11.7-9.5,21.3-21.3,21.3H256.9
			c-11.8,0-21.3,9.5-21.3,21.3s9.5,21.3,21.3,21.3h191.4c35.2,0,63.8-28.6,63.8-63.8V64.6c0-35.2-28.6-63.8-63.8-63.8H256.9
			c-11.8,0-21.3,9.5-21.3,21.3S245.1,43.4,256.9,43.4z"/>
	</g>
</g>
<g>
	<g>
		<path class="st0" d="M335.6,240.9L206.3,113.3c-8.3-8.2-21.8-8.1-30.1,0.2s-8.2,21.8,0.2,30.1l92.4,91.2H21.3
			C9.5,234.7,0,244.2,0,256c0,11.8,9.5,21.3,21.3,21.3h247.6l-92.4,91.2c-8.4,8.2-8.4,21.7-0.2,30.1c4.2,4.2,9.7,6.3,15.1,6.3
			c5.4,0,10.8-2,14.9-6.1l129.3-127.6c4-4,6.3-9.4,6.3-15.1C341.9,250.3,339.6,244.9,335.6,240.9z"/>
	</g>
</g>
</svg>
