<?xml version="1.0" encoding="utf-8"?>
<!-- Generator: Adobe Illustrator 22.1.0, SVG Export Plug-In . SVG Version: 6.00 Build 0)  -->
<svg version="1.1" id="Capa_1" xmlns="http://www.w3.org/2000/svg" xmlns:xlink="http://www.w3.org/1999/xlink" x="0px" y="0px"
	 viewBox="0 0 512 512" style="enable-background:new 0 0 512 512;" xml:space="preserve">
<style type="text/css">
	.st0{fill:#35364F;}
	.st1{fill:#E7B848;}
</style>
<circle class="st0" cx="261" cy="214" r="169"/>
<path class="st1" d="M255.4,65.8c81.4,0,147.4,66,147.4,147.4s-66,147.4-147.4,147.4s-147.4-66-147.4-147.4S173.9,65.8,255.4,65.8
	L255.4,65.8z M52.8,213.2C52.8,331.8,176.5,421.8,256,502c79.5-80.2,203.2-170.2,203.2-288.8C459.2,101,368.2,10,256,10
	S52.8,101,52.8,213.2z"/>
<polygon class="st1" points="287.4,173.3 255.4,122.8 223.3,173.3 165.4,188.1 203.5,234.2 199.8,294 255.4,271.9 311,294 
	307.2,234.2 345.4,188.1 "/>
<path class="st1" d="M406.8,62.5C366.5,22.2,313,0,256,0c0,0,0,0,0,0c0,0,0,0,0,0C199,0,145.5,22.2,105.2,62.5
	C65,102.7,42.8,156.3,42.8,213.2c0,101.6,85,181.3,160.1,251.6c16.4,15.4,31.8,29.9,46,44.2c1.9,1.9,4.4,3,7.1,3
	c2.7,0,5.2-1.1,7.1-3c14.2-14.3,29.7-28.8,46-44.2c75-70.4,160.1-150.1,160.1-251.6C469.2,156.3,447,102.7,406.8,62.5z M295.5,450.3
	c-13.8,13-27,25.4-39.5,37.6c-12.4-12.3-25.6-24.6-39.5-37.6c-72.1-67.6-153.8-144.2-153.8-237c0-51.6,20.1-100.1,56.6-136.6
	C155.9,40.1,204.4,20,256,20c0,0,0,0,0,0c51.6,0,100.1,20.1,136.6,56.6c36.5,36.5,56.6,85,56.6,136.6
	C449.2,306.1,367.5,382.7,295.5,450.3z"/>
<path class="st0" d="M-161.1,334c1.2,0.5,2.4,0.7,3.7,0.7c2.1,0,4.1-0.6,5.9-1.9c2.8-2,4.3-5.3,4.1-8.7l-3.5-55.8l35.6-43
	c2.2-2.6,2.9-6.2,1.8-9.5c-1.1-3.3-3.7-5.8-7-6.6l-54.1-13.9l-29.9-47.2c-1.8-2.9-5-4.6-8.4-4.6c-3.4,0-6.6,1.8-8.4,4.6l-29.9,47.2
	l-54.1,13.9c-3.3,0.9-6,3.3-7,6.6c-1.1,3.3-0.4,6.8,1.8,9.5l35.6,43l-3.5,55.8c-0.2,3.4,1.3,6.7,4.1,8.7s6.4,2.5,9.6,1.2l51.9-20.6
	L-161.1,334z M-216.7,293.3l-41,16.2l2.8-44c0.2-2.5-0.6-5-2.3-7l-28.1-33.9l42.7-10.9c2.5-0.6,4.6-2.2,6-4.3l23.6-37.2l23.6,37.2
	c1.4,2.1,3.5,3.7,6,4.3l42.7,10.9l-28.1,33.9c-1.6,2-2.4,4.5-2.3,7l2.8,44l-41-16.2C-211.7,292.4-214.3,292.4-216.7,293.3z"/>
</svg>
