<?xml version="1.0" encoding="utf-8"?>
<!-- Generator: Adobe Illustrator 23.0.4, SVG Export Plug-In . SVG Version: 6.00 Build 0)  -->
<svg version="1.1" id="Capa_1" xmlns="http://www.w3.org/2000/svg" xmlns:xlink="http://www.w3.org/1999/xlink" x="0px" y="0px"
	 viewBox="0 0 269 192.48" style="enable-background:new 0 0 269 192.48;" xml:space="preserve">
<path d="M8.41,31.62h252.19c4.64,0,8.41-6.99,8.41-15.59c0-8.61-3.77-15.59-8.41-15.59H8.41C3.77,0.44,0,7.42,0,16.03
	S3.77,31.62,8.41,31.62z"/>
<path d="M260.59,162.86H8.41c-4.64,0-8.41,6.99-8.41,15.59c0,8.61,3.77,15.59,8.41,15.59h252.19c4.64,0,8.41-6.99,8.41-15.59
	C269,169.85,265.23,162.86,260.59,162.86z"/>
<path d="M176.53,80.65H8.41C3.77,80.65,0,87.64,0,96.24c0,8.61,3.77,15.59,8.41,15.59h168.13c4.64,0,8.41-6.99,8.41-15.59
	C184.94,87.64,181.17,80.65,176.53,80.65z"/>
</svg>
