<?xml version="1.0" encoding="utf-8"?>
<!-- Generator: Adobe Illustrator 23.0.4, SVG Export Plug-In . SVG Version: 6.00 Build 0)  -->
<svg version="1.1" id="Слой_1" xmlns="http://www.w3.org/2000/svg" xmlns:xlink="http://www.w3.org/1999/xlink" x="0px" y="0px"
	 viewBox="0 0 345.9 319.8" style="enable-background:new 0 0 345.9 319.8;" xml:space="preserve">
<style type="text/css">
	.st0{fill:#C3C3C3;}
</style>
<path class="st0" d="M176,279.8c-23.6,0-50.5-4.6-68.5-11.8c-3.9-1.5-8.3-0.5-11.1,2.5c-12.1,13.2-27.8,22.4-44.9,26.6
	c9.4-18.1,11.8-39.4,6.1-59.5c-0.5-1.6-1.3-3-2.5-4.2C32.5,210,20,180.3,20,149.8c0-70.5,71.4-130,156-130c79.9,0,150,55.5,150,130
	C326,221.4,258.7,279.8,176,279.8z M345.6,139.5c-2.9-37.8-21.8-73.4-54-99.8c0,0-12.5-10.5-30.7-20c0,0-29.9-19.8-94.5-19.8
	C80.6,4.3,0,66.1,0,149.8c0,34.9,13.8,68.8,39,95.6c5,20.5-1.1,42.3-16.1,57.3c-2.9,2.9-3.7,7.2-2.2,10.9c1.5,3.7,5.2,6.2,9.2,6.2
	c28.5,0,56-11.2,76.4-30.9c19.9,6.8,45.8,10.9,69.6,10.9c90,0,163.9-62.1,169.6-140.2C345.6,159.5,346.3,149.8,345.6,139.5z"/>
<path class="st0" d="M253.2,111.7H92.7c-7,0-12.7,4.5-12.7,10s5.7,10,12.7,10h160.5c7,0,12.7-4.5,12.7-10S260.3,111.7,253.2,111.7z"
	/>
<path class="st0" d="M256,171.8H90c-5.5,0-10,4.5-10,10s4.5,10,10,10h166c5.5,0,10-4.5,10-10S261.5,171.8,256,171.8z"/>
</svg>
