<?xml version="1.0" encoding="utf-8"?>
<!-- Generator: Adobe Illustrator 23.0.4, SVG Export Plug-In . SVG Version: 6.00 Build 0)  -->
<svg version="1.1" id="Capa_1" xmlns="http://www.w3.org/2000/svg" xmlns:xlink="http://www.w3.org/1999/xlink" x="0px" y="0px"
	 viewBox="0 0 512 512" style="enable-background:new 0 0 512 512;" xml:space="preserve">
<style type="text/css">
	.st0{fill:#E7B848;}
	.st1{fill:#35364F;}
</style>
<path class="st0" d="M255.38,65.78c81.43,0,147.44,66.01,147.44,147.44s-66.01,147.44-147.44,147.44s-147.44-66.01-147.44-147.44
	S173.95,65.78,255.38,65.78L255.38,65.78z M52.79,213.22C52.78,331.81,176.53,421.76,256,502
	c79.47-80.24,203.22-170.19,203.21-288.78C459.22,100.98,368.23,10,256,10C143.77,10,52.78,100.98,52.79,213.22z"/>
<polygon class="st0" points="287.42,173.28 255.38,122.76 223.33,173.28 165.38,188.15 203.52,234.24 199.75,293.95 255.38,271.91 
	311,293.95 307.23,234.24 345.38,188.15 "/>
<path class="st0" d="M406.77,62.45C366.51,22.19,312.98,0.01,256.04,0c-0.01,0-0.02,0-0.04,0c0,0.01-0.02,0-0.04,0
	C199.03,0.01,145.5,22.19,105.24,62.45c-40.27,40.27-62.45,93.82-62.45,150.77c0,101.55,85.04,181.29,160.08,251.64
	c16.38,15.35,31.84,29.85,46.03,44.18c1.88,1.89,4.44,2.96,7.11,2.96c2.67,0,5.23-1.07,7.11-2.96
	c14.19-14.33,29.66-28.83,46.03-44.18c75.03-70.35,160.08-150.08,160.08-251.64C469.22,156.26,447.04,102.72,406.77,62.45z
	 M295.46,450.26c-13.84,12.98-27.04,25.35-39.46,37.61c-12.42-12.26-25.62-24.63-39.46-37.61
	C144.47,382.69,62.78,306.11,62.79,213.22c0-51.61,20.1-100.13,56.59-136.62C155.87,40.1,204.39,20,256,20c0.01,0,0.02,0,0.03,0
	c51.6,0.01,100.11,20.1,136.59,56.59c36.49,36.49,56.59,85.02,56.59,136.63C449.22,306.11,367.53,382.69,295.46,450.26z"/>
<path class="st1" d="M307.32,303.24c1.19,0.47,2.44,0.7,3.68,0.7c2.08,0,4.14-0.65,5.88-1.91c2.77-2.01,4.32-5.3,4.1-8.72
	l-3.52-55.76l35.62-43.04c2.18-2.64,2.86-6.21,1.81-9.47c-1.06-3.26-3.71-5.75-7.03-6.6l-54.12-13.88l-29.92-47.18
	c-1.83-2.89-5.02-4.64-8.44-4.64c-3.43,0-6.61,1.75-8.44,4.64l-29.92,47.18l-54.12,13.88c-3.32,0.85-5.97,3.34-7.03,6.6
	c-1.06,3.26-0.38,6.83,1.81,9.47l35.62,43.04l-3.52,55.76c-0.22,3.42,1.33,6.71,4.1,8.72c2.77,2.01,6.38,2.47,9.56,1.21l51.94-20.58
	L307.32,303.24z M251.69,262.61l-40.97,16.23l2.78-43.98c0.16-2.54-0.65-5.05-2.28-7.01l-28.1-33.94l42.68-10.95
	c2.47-0.63,4.6-2.18,5.96-4.33l23.6-37.21l23.6,37.21c1.36,2.15,3.49,3.7,5.96,4.33l42.68,10.95l-28.1,33.94
	c-1.62,1.96-2.44,4.47-2.28,7.01l2.78,43.98l-40.96-16.23C256.69,261.67,254.06,261.67,251.69,262.61z"/>
</svg>
