<?xml version="1.0" encoding="utf-8"?>
<!-- Generator: Adobe Illustrator 23.0.4, SVG Export Plug-In . SVG Version: 6.00 Build 0)  -->
<svg version="1.1" id="Capa_1" xmlns="http://www.w3.org/2000/svg" xmlns:xlink="http://www.w3.org/1999/xlink" x="0px" y="0px"
	 viewBox="0 0 269 227.03" style="enable-background:new 0 0 269 227.03;" xml:space="preserve">
<path d="M8.41,45.06h252.19c4.64,0,8.41-5.72,8.41-12.76c0-7.04-3.77-12.76-8.41-12.76H8.41C3.77,19.55,0,25.26,0,32.3
	S3.77,45.06,8.41,45.06z"/>
<path d="M260.59,182.97H8.41c-4.64,0-8.41,5.72-8.41,12.76s3.77,12.76,8.41,12.76h252.19c4.64,0,8.41-5.72,8.41-12.76
	S265.23,182.97,260.59,182.97z"/>
<path d="M256.77,100.76H12.23C5.48,100.76,0,106.48,0,113.52c0,7.04,5.48,12.76,12.23,12.76h244.55c6.75,0,12.23-5.72,12.23-12.76
	C269,106.47,263.52,100.76,256.77,100.76z"/>
<circle cx="202.31" cy="33.3" r="33.3"/>
<circle cx="67.32" cy="113.52" r="33.3"/>
<circle cx="202.31" cy="193.73" r="33.3"/>
</svg>
